{"title":"The Bridge To Nowhere 2009 BRRip H264 Feel-Free","uid":5985855,"size":1582035261,"categoryP":"video","categoryS":"movies","magnet":"?xt=urn:btih:04cae3b0a5971d56f93efe06c27146aa6c6fe55d&amp;dn=The+Bridge+To+Nowhere+2009+BRRip+H264+Feel-Free&amp;tr=udp%3A%2F%2Ftracker.openbittorrent.com%3A80&amp;tr=udp%3A%2F%2Fopen.demonii.com%3A1337&amp;tr=udp%3A%2F%2Ftracker.coppersurfer.tk%3A6969&amp;tr=udp%3A%2F%2Fexodus.desync.com%3A6969","seeders":0,"leechers":2,"uploader":"neon","files":-1,"time":1290734964,"description":"\nGenre:Drama | Crime\nLanguage:English\n &lt;a href=&quot; http://www.imdb.com/title/tt0973785/&quot; rel=&quot;nofollow&quot; target=&quot;_NEW&quot;&gt; http://www.imdb.com/title/tt0973785/&lt;/a&gt;\nSource:720.BluRay.DTS.x264-DNL\n\nGeneral\nComplete name :The Bridge To Nowhere 2009 BRRip H264 Feel-Free\nFormat : MPEG-4\nFormat profile : Base Media\nCodec ID : mp42\nFile size : 1.47 GiB\nDuration : 1h 45mn\nOverall bit rate : 2 000 Kbps\nVideo #1\nID : 1\nFormat : AVC\nFormat/Info : Advanced Video Codec\nFormat profile : &lt;a class=&quot;__cf_email__&quot; href=&quot;/cdn-cgi/l/email-protection&quot; data-cfemail=&quot;327f535b5c727e071c03&quot;&gt;[email&amp;#160;protected]&lt;/a&gt;&lt;script cf-hash='f9e31' type=&quot;text/javascript&quot;&gt;\n/* &lt;![CDATA[ */!function(){try{var t=&quot;currentScript&quot;in document?document.currentScript:function(){for(var t=document.getElementsByTagName(&quot;script&quot;),e=t.length;e--;)if(t[e].getAttribute(&quot;cf-hash&quot;))return t[e]}();if(t&amp;&amp;t.previousSibling){var e,r,n,i,c=t.previousSibling,a=c.getAttribute(&quot;data-cfemail&quot;);if(a){for(e=&quot;&quot;,r=parseInt(a.substr(0,2),16),n=2;a.length-n;n+=2)i=parseInt(a.substr(n,2),16)^r,e+=String.fromCharCode(i);e=document.createTextNode(e),c.parentNode.replaceChild(e,c)}}}catch(u){}}();/* ]]&gt; */&lt;/script&gt;\nFormat settings, CABAC : Yes\nFormat settings, ReFrames : 1 frame\nCodec ID : avc1\nCodec ID/Info : Advanced Video Coding\nDuration : 1h 45mn\nBit rate mode : Variable\nBit rate : 1 519 Kbps\nWidth : 648 pixels\nHeight : 352 pixels\nDisplay aspect ratio : 16:9\nFrame rate mode : Constant\nFrame rate : 23.976 fps\nResolution : 24 bits\nColorimetry : 4:2:0\nScan type : Progressive\nBits/(Pixel*Frame) : 0.278\nStream size : 1.12 GiB (76%)\nAudio #2\nID : 2\nFormat : AAC\nFormat/Info : Advanced Audio Codec\nFormat version : Version 4\nFormat profile : LC\nFormat settings, SBR : No\nCodec ID : 40\nDuration : 1h 45mn\nBit rate mode : Constant\nBit rate : 477 Kbps\nNominal bit rate : 480 Kbps\nChannel(s) : 6 channels\nChannel positions : Front: L C R, Rear: L R, LFE\nSampling rate : 48.0 KHz\nResolution : 16 bits\nStream size : 359 MiB (24%)\nPlot:\nCenters on the rise and fall of four blue-collar men who team with a destitute prostitute to create a high-priced escort service.\n &lt;a href=&quot;\nhttp://rapidhdd.com/images/239757vlcsnap-2010-11-26-01h54m56s91.png&quot; rel=&quot;nofollow&quot; target=&quot;_NEW&quot;&gt;\nhttp://rapidhdd.com/images/239757vlcsnap-2010-11-26-01h54m56s91.png&lt;/a&gt; &lt;a href=&quot;\nhttp://www.rapidhdd.com/images/75994vlcsnap-2010-11-26-01h55m37s246.png&quot; rel=&quot;nofollow&quot; target=&quot;_NEW&quot;&gt;\nhttp://www.rapidhdd.com/images/75994vlcsnap-2010-11-26-01h55m37s246.png&lt;/a&gt; &lt;a href=&quot;\nhttp://www.rapidhdd.com/images/686325vlcsnap-2010-11-26-01h56m17s143.png&quot; rel=&quot;nofollow&quot; target=&quot;_NEW&quot;&gt;\nhttp://www.rapidhdd.com/images/686325vlcsnap-2010-11-26-01h56m17s143.png&lt;/a&gt;\n &lt;a href=&quot;\nhttp://www.youtube.com/watch?v=OukMb93LUPc&amp;feature=player_embedded&quot; rel=&quot;nofollow&quot; target=&quot;_NEW&quot;&gt;\nhttp://www.youtube.com/watch?v=OukMb93LUPc&amp;feature=player_embedded&lt;/a&gt;","torrent":{"xt":"urn:btih:04cae3b0a5971d56f93efe06c27146aa6c6fe55d","amp;dn":"The+Bridge+To+Nowhere+2009+BRRip+H264+Feel-Free","amp;tr":["udp%3A%2F%2Ftracker.openbittorrent.com%3A80","udp%3A%2F%2Fopen.demonii.com%3A1337","udp%3A%2F%2Ftracker.coppersurfer.tk%3A6969","udp%3A%2F%2Fexodus.desync.com%3A6969"],"infoHash":"04cae3b0a5971d56f93efe06c27146aa6c6fe55d","infoHashBuffer":{"type":"Buffer","data":[4,202,227,176,165,151,29,86,249,62,254,6,194,113,70,170,108,111,229,93]},"announce":[],"urlList":[]}}